<?xml version="1.0" encoding="UTF-8"?>
<svg width="60px" height="60px" viewBox="0 0 60 60" version="1.1" xmlns="http://www.w3.org/2000/svg" xmlns:xlink="http://www.w3.org/1999/xlink">
    <!-- Generator: Sketch 50.2 (55047) - http://www.bohemiancoding.com/sketch -->
    <title>Group 3</title>
    <desc>Created with Sketch.</desc>
    <defs></defs>
    <g id="Page-1" stroke="none" stroke-width="1" fill="none" fill-rule="evenodd">
        <g id="contact" transform="translate(-354.000000, -601.000000)">
            <g id="Group-3" transform="translate(301.000000, 601.000000)">
                <circle id="Oval-Copy-2" fill="#FFFFFF" cx="83" cy="30" r="30"></circle>
                <path d="M83.15,16 C77.5385,16 73,20.5385 73,26.15 C73,33.7625 83.15,45 83.15,45 C83.15,45 93.3,33.7625 93.3,26.15 C93.3,20.5385 88.7615,16 83.15,16 L83.15,16 Z M83.15,29.775 C81.149,29.775 79.525,28.151 79.525,26.15 C79.525,24.149 81.149,22.525 83.15,22.525 C85.151,22.525 86.775,24.149 86.775,26.15 C86.775,28.151 85.151,29.775 83.15,29.775 L83.15,29.775 Z" id="Fill-94" fill="#FA4359"></path>
            </g>
        </g>
    </g>
</svg>